<svg width="45" height="45" viewBox="0 0 45 45" fill="none" xmlns="http://www.w3.org/2000/svg">
<path d="M11 31H21V33H11V31ZM11 25H21V27H11V25ZM33 21H13C12.4696 21 11.9609 20.7893 11.5858 20.4142C11.2107 20.0391 11 19.5304 11 19V13C11 12.4696 11.2107 11.9609 11.5858 11.5858C11.9609 11.2107 12.4696 11 13 11H33C33.5304 11 34.0391 11.2107 34.4142 11.5858C34.7893 11.9609 35 12.4696 35 13V19C35 19.5304 34.7893 20.0391 34.4142 20.4142C34.0391 20.7893 33.5304 21 33 21ZM13 13V19H33V13H13ZM33 35H27C26.4696 35 25.9609 34.7893 25.5858 34.4142C25.2107 34.0391 25 33.5304 25 33V27C25 26.4696 25.2107 25.9609 25.5858 25.5858C25.9609 25.2107 26.4696 25 27 25H33C33.5304 25 34.0391 25.2107 34.4142 25.5858C34.7893 25.9609 35 26.4696 35 27V33C35 33.5304 34.7893 34.0391 34.4142 34.4142C34.0391 34.7893 33.5304 35 33 35ZM27 27V33H33V27H27Z" fill="#2FF2F0"/>
<rect x="0.5" y="0.5" width="44" height="44" stroke="#2FF2F0"/>
</svg>
