<svg width="61" height="61" viewBox="0 0 61 61" fill="none" xmlns="http://www.w3.org/2000/svg">
<rect x="0.5" y="0.5" width="60" height="60" stroke="#2FF2F0"/>
<g clip-path="url(#clip0_1058_10)">
<path d="M33.1278 40.3492V30.8778H36.1377V39.1396C36.1752 42.7757 35.9111 43.9454 34.1916 45.0835C31.6297 46.501 28.1254 45.4301 27.1375 42.9597L29.5751 41.4665C30.4335 43.015 31.2595 43.2314 32.3266 42.8707C33.1158 42.604 33.162 41.4713 33.1278 40.3492ZM37.5267 42.6094L39.9611 41.2053C40.6134 42.2079 41.2167 42.7589 42.3012 42.9842C43.7729 43.1635 45.2538 42.6586 44.922 41.0957C44.5809 39.8186 41.909 39.5083 40.0901 38.1431C38.2436 36.9029 37.8114 33.8898 39.3281 32.1683C40.8526 30.2053 45.4181 29.8859 47.0973 33.1135L44.7509 34.619C43.895 32.6233 40.8093 32.9777 41.4768 35.2192C42.0847 36.772 47.2112 36.772 47.89 40.5714C48.3112 42.5873 47.4854 44.1536 46.0507 44.9622C43.5793 46.3552 39.1682 45.8859 37.5267 42.6094V42.6094ZM31.2028 39.6267V31.8844L30.2087 30.2314H25.2568L19.6241 39.6267H31.2028ZM31.7689 28.9528H33.8923L32.3075 26.468V18.1156H34.0391C35.3343 18.1156 35.3343 16.2831 34.0391 16.2831H21.4265C20.1314 16.2831 20.1314 18.1156 21.4265 18.1156H23.1581V26.468L14.3828 41.0205C13.5589 42.4228 14.0761 43.2989 15.8258 43.2989H26.1832V41.4665H16.2521L25.0149 26.9362V18.1156H30.4506V26.9362L31.7689 28.9528H31.7689Z" fill="#2FF2F0"/>
</g>
<defs>
<clipPath id="clip0_1058_10">
<rect width="34" height="34" fill="white" transform="translate(14 14)"/>
</clipPath>
</defs>
</svg>
