<svg width="61" height="61" viewBox="0 0 61 61" fill="none" xmlns="http://www.w3.org/2000/svg">
<rect x="0.5" y="0.5" width="60" height="60" stroke="#2FF2F0"/>
<g clip-path="url(#clip0_1058_9)">
<path d="M42.7075 24.2992C43.26 23.7467 43.26 22.8542 42.7075 22.3017L38.6983 18.2925C38.1458 17.74 37.2533 17.74 36.7008 18.2925L30.34 24.6534L24.8292 19.1425C23.7242 18.0375 21.925 18.0375 20.82 19.1425L18.1283 21.8342C17.0233 22.9392 17.0233 24.7384 18.1283 25.8434L23.6392 31.3542L17.25 37.7434V43.75H23.2567L29.66 37.3467L35.1708 42.8575C36.5167 44.2034 38.33 43.7076 39.18 42.8575L41.8717 40.1659C42.9767 39.0609 42.9767 37.2617 41.8717 36.1567L36.3608 30.6459L42.7075 24.2992ZM20.14 23.8317L22.8175 21.14L24.6167 22.9392L22.945 24.625L24.9425 26.6225L26.6283 24.9367L28.3283 26.6367L25.6367 29.3284L20.14 23.8317ZM36.0492 34.3717L34.3633 36.0575L36.3608 38.055L38.0467 36.3692L39.8458 38.1684L37.1542 40.86L31.6433 35.3492L34.335 32.6575L36.0492 34.3717ZM22.0808 40.9167H20.0833V38.9192L33.6975 25.305L35.5392 27.1467L35.695 27.3025L22.0808 40.9167ZM35.695 23.2934L37.6925 21.2959L39.69 23.2934L37.6925 25.2909L35.695 23.2934Z" fill="#2FF2F0"/>
</g>
<defs>
<clipPath id="clip0_1058_9">
<rect width="34" height="34" fill="white" transform="translate(13 14)"/>
</clipPath>
</defs>
</svg>
