<svg width="24" height="25" viewBox="0 0 24 25" fill="none" xmlns="http://www.w3.org/2000/svg">
<path d="M16.36 14.5886C16.44 13.9043 16.5 13.22 16.5 12.515C16.5 11.81 16.44 11.1257 16.36 10.4415H19.74C19.9 11.105 20 11.7997 20 12.515C20 13.2304 19.9 13.9251 19.74 14.5886M14.59 20.3531C15.19 19.2023 15.65 17.9581 15.97 16.6622H18.92C17.9512 18.3918 16.4141 19.702 14.59 20.3531ZM14.34 14.5886H9.66C9.56 13.9043 9.5 13.22 9.5 12.515C9.5 11.81 9.56 11.1154 9.66 10.4415H14.34C14.43 11.1154 14.5 11.81 14.5 12.515C14.5 13.22 14.43 13.9043 14.34 14.5886ZM12 20.7678C11.17 19.5237 10.5 18.1448 10.09 16.6622H13.91C13.5 18.1448 12.83 19.5237 12 20.7678ZM8 8.36791H5.08C6.03886 6.63359 7.5748 5.32131 9.4 4.67696C8.8 5.82779 8.35 7.07193 8 8.36791ZM5.08 16.6622H8C8.35 17.9581 8.8 19.2023 9.4 20.3531C7.57862 19.7017 6.04485 18.3912 5.08 16.6622ZM4.26 14.5886C4.1 13.9251 4 13.2304 4 12.515C4 11.7997 4.1 11.105 4.26 10.4415H7.64C7.56 11.1257 7.5 11.81 7.5 12.515C7.5 13.22 7.56 13.9043 7.64 14.5886M12 4.25188C12.83 5.49602 13.5 6.88531 13.91 8.36791H10.09C10.5 6.88531 11.17 5.49602 12 4.25188ZM18.92 8.36791H15.97C15.657 7.08381 15.1936 5.84427 14.59 4.67696C16.43 5.33014 17.96 6.64685 18.92 8.36791ZM12 2.14722C6.47 2.14722 2 6.81273 2 12.515C2 15.2647 3.05357 17.9018 4.92893 19.8462C5.85752 20.8089 6.95991 21.5726 8.17317 22.0936C9.38642 22.6147 10.6868 22.8828 12 22.8828C14.6522 22.8828 17.1957 21.7905 19.0711 19.8462C20.9464 17.9018 22 15.2647 22 12.515C22 11.1535 21.7413 9.80532 21.2388 8.54744C20.7362 7.28956 19.9997 6.14662 19.0711 5.18388C18.1425 4.22114 17.0401 3.45745 15.8268 2.93642C14.6136 2.41539 13.3132 2.14722 12 2.14722Z" fill="#2FF2F0"/>
</svg>
