<svg width="44" height="44" viewBox="0 0 44 44" fill="none" xmlns="http://www.w3.org/2000/svg">
<path d="M3.99985 4.68863C3.67188 4.68533 3.35601 4.81237 3.12165 5.04183C2.88729 5.27129 2.7536 5.58441 2.74998 5.91238C2.74854 5.98379 2.75407 6.05517 2.76648 6.12551L8.00248 37.9059C8.06776 38.2948 8.26797 38.6483 8.56795 38.9043C8.86794 39.1602 9.24851 39.3023 9.64285 39.3056H34.7627C35.0589 39.3096 35.3467 39.2071 35.5738 39.0168C35.8009 38.8266 35.9522 38.5612 36.0002 38.2689L41.2321 6.12413C41.2851 5.80153 41.2082 5.47109 41.0183 5.20496C40.8285 4.93883 40.541 4.75865 40.2187 4.70376C40.1519 4.6928 40.0843 4.68728 40.0166 4.68726L3.99985 4.68863ZM26.048 27.6635H18.0304L15.8592 16.328H27.9909L26.048 27.6635Z" fill="#2684FF"/>
<path d="M39.567 16.3267H27.9909L26.048 27.6622H18.0304L8.56348 38.9124C8.86243 39.1744 9.24533 39.3208 9.64285 39.3249H34.7696C35.0658 39.3288 35.3536 39.2264 35.5807 39.0361C35.8078 38.8459 35.9591 38.5805 36.0071 38.2882L39.567 16.3267Z" fill="url(#paint0_linear_195_1077)"/>
<defs>
<linearGradient id="paint0_linear_195_1077" x1="41.6915" y1="19.0745" x2="22.5642" y2="34.0062" gradientUnits="userSpaceOnUse">
<stop offset="0.18" stop-color="#0052CC"/>
<stop offset="1" stop-color="#2684FF"/>
</linearGradient>
</defs>
</svg>
