<svg width="44" height="44" viewBox="0 0 44 44" fill="none" xmlns="http://www.w3.org/2000/svg">
<path d="M22 40.3333C32.1252 40.3333 40.3334 32.1252 40.3334 22C40.3334 11.8747 32.1252 3.66663 22 3.66663C11.8748 3.66663 3.66669 11.8747 3.66669 22C3.66669 32.1252 11.8748 40.3333 22 40.3333Z" fill="#4DB6AC"/>
<path d="M30.5772 19.7084H22.4354C22.264 19.7084 22.1531 19.5269 22.2319 19.3738L26.8427 10.4409C26.9619 10.209 26.664 9.98989 26.4779 10.1723L13.4612 22.9818C13.3155 23.1257 13.4172 23.3741 13.6216 23.3741H22.1833C22.3685 23.3741 22.4766 23.5822 22.3712 23.7344L15.8391 33.144C15.6832 33.3686 15.9802 33.628 16.1819 33.4437L30.7321 20.1062C30.8861 19.9651 30.7862 19.7084 30.5772 19.7084Z" fill="white"/>
</svg>
