<svg width="44" height="44" viewBox="0 0 44 44" fill="none" xmlns="http://www.w3.org/2000/svg">
<g clip-path="url(#clip0_195_1048)">
<path d="M43.3388 31.1788C43.1272 30.6258 42.8799 30.0908 42.6446 29.5951C42.2825 28.8325 41.9031 28.0685 41.5362 27.33L41.5071 27.2714C38.2346 20.6746 34.7224 13.9872 31.0678 7.39588L30.9126 7.11588C30.5398 6.44292 30.1545 5.74693 29.759 5.06309C29.2899 4.1975 28.7207 3.38212 28.0617 2.6314C27.3194 1.8072 26.3919 1.14455 25.3447 0.690125C24.2968 0.2355 23.1547 -1.60757e-05 21.9986 0.000122131C20.8425 0.000260338 19.7005 0.23605 18.6528 0.690925C17.6057 1.14559 16.6785 1.80847 15.9364 2.63284C15.2782 3.38372 14.7094 4.1989 14.24 5.06404C13.8413 5.75413 13.4522 6.45652 13.0759 7.13588L12.9319 7.39588C9.27715 13.9879 5.76488 20.6749 2.49256 27.2712L2.44478 27.3672C2.08418 28.0936 1.71138 28.845 1.35526 29.5948C1.11979 30.0901 0.872978 30.6247 0.661056 31.1791C0.0542723 32.6892 -0.139116 34.3161 0.0983375 35.9132C0.350387 37.5275 1.05164 39.0524 2.13248 40.3365C3.21427 41.6216 4.63777 42.6215 6.26212 43.2372C7.48967 43.6994 8.80186 43.9358 10.126 43.933C10.542 43.933 10.9577 43.9103 11.3709 43.8655C13.0455 43.6669 14.6608 43.1596 16.1224 42.3732C18.0392 41.3708 19.932 39.9018 21.9999 37.8026C24.0677 39.9018 25.9605 41.3708 27.8773 42.3732C29.3388 43.1596 30.9541 43.667 32.6288 43.8655C33.042 43.9104 33.4578 43.9329 33.8738 43.933C35.198 43.9358 36.5101 43.6995 37.7376 43.2372C39.3619 42.6214 40.7854 41.6215 41.8672 40.3364C42.9481 39.0524 43.6494 37.5275 43.9015 35.9132C44.1387 34.316 43.9453 32.689 43.3388 31.1788ZM21.9999 33.4672C19.4401 30.4468 17.7975 27.6418 17.221 25.2903C16.9849 24.4092 16.9292 23.4946 17.0567 22.5943C17.1575 21.9341 17.418 21.3039 17.8185 20.7511C18.3117 20.1559 18.9451 19.6741 19.6699 19.3428C20.3952 19.0113 21.1923 18.839 22.0002 18.8391C22.8081 18.8392 23.6053 19.0116 24.3305 19.3431C25.0552 19.6745 25.6885 20.1564 26.1816 20.7516C26.582 21.3045 26.8425 21.9348 26.9433 22.5951C27.0707 23.4957 27.0148 24.4107 26.7783 25.292C26.2012 27.6432 24.5591 30.4474 21.9999 33.4672ZM40.9116 35.5156C40.7354 36.6443 40.245 37.7105 39.4893 38.6084C38.7329 39.507 37.7376 40.2061 36.6018 40.6367C35.4528 41.0652 34.2061 41.2169 32.9773 41.078C31.7002 40.9249 30.4694 40.5336 29.3585 39.9274C27.6525 39.0351 25.9255 37.6653 23.9823 35.656C27.0758 32.1048 29.0077 28.8317 29.7229 25.9164C30.0448 24.6905 30.1146 23.419 29.9286 22.169C29.7598 21.092 29.3304 20.0648 28.6727 19.1648C27.9018 18.1933 26.8965 17.4039 25.738 16.86C24.5787 16.316 23.2985 16.0325 22.0002 16.0325C20.7018 16.0324 19.4216 16.3157 18.2623 16.8597C17.1037 17.4034 16.0984 18.1927 15.3275 19.1642C14.6699 20.0639 14.2404 21.0908 14.0714 22.1676C13.8853 23.417 13.9547 24.688 14.276 25.9135C14.991 28.8301 16.9228 32.1039 20.0176 35.6562C18.0742 37.6653 16.3472 39.0351 14.6412 39.9276C13.5303 40.5337 12.2995 40.925 11.0224 41.078C9.79351 41.2169 8.54684 41.0652 7.3977 40.6367C6.26192 40.2061 5.26659 39.507 4.5102 38.6084C3.7546 37.7105 3.26441 36.6443 3.08827 35.5156C2.91896 34.3685 3.06302 33.2002 3.50713 32.1186C3.67609 31.6768 3.87357 31.2432 4.11832 30.7282C4.46465 29.9994 4.83212 29.2586 5.18756 28.5424L5.23534 28.4461C8.48945 21.8868 11.9823 15.2368 15.6171 8.68085L15.7618 8.41989C16.1319 7.75141 16.5146 7.06036 16.9007 6.39268C17.27 5.70434 17.717 5.05455 18.2341 4.45429C18.6926 3.93878 19.2677 3.52389 19.9184 3.23925C20.8997 2.80992 22.0064 2.69623 23.0646 2.91604C24.1229 3.13585 25.0726 3.67671 25.7648 4.45365C26.2823 5.05347 26.7294 5.70308 27.0985 6.39141C27.4809 7.05316 27.8603 7.73797 28.2272 8.4002L28.3826 8.68116C32.0172 15.2364 35.5101 21.8861 38.7645 28.4468L38.7938 28.5058C39.1554 29.2341 39.5294 29.9869 39.8814 30.7284C40.1265 31.2442 40.3243 31.6781 40.4927 32.1183C40.9367 33.2 41.0807 34.3684 40.9116 35.5156Z" fill="#FF385C"/>
</g>
<defs>
<clipPath id="clip0_195_1048">
<rect width="44" height="44" fill="white"/>
</clipPath>
</defs>
</svg>
