<svg width="44" height="44" viewBox="0 0 44 44" fill="none" xmlns="http://www.w3.org/2000/svg">
<g clip-path="url(#clip0_406_240)">
<path d="M11 44.0002C17.072 44.0002 22 40.7148 22 36.6668V29.3335H11C4.928 29.3335 0 32.6188 0 36.6668C0 40.7148 4.928 44.0002 11 44.0002Z" fill="#0ACF83"/>
<path d="M0 21.9998C0 17.9518 4.928 14.6665 11 14.6665H22V29.3332H11C4.928 29.3332 0 26.0478 0 21.9998Z" fill="#A259FF"/>
<path d="M0 7.33333C0 3.28533 4.928 0 11 0H22V14.6667H11C4.928 14.6667 0 11.3813 0 7.33333Z" fill="#F24E1E"/>
<path d="M22 0H33C39.072 0 44 3.28533 44 7.33333C44 11.3813 39.072 14.6667 33 14.6667H22V0Z" fill="#FF7262"/>
<path d="M44 21.9998C44 26.0478 39.072 29.3332 33 29.3332C26.928 29.3332 22 26.0478 22 21.9998C22 17.9518 26.928 14.6665 33 14.6665C39.072 14.6665 44 17.9518 44 21.9998Z" fill="#1ABCFE"/>
</g>
<defs>
<clipPath id="clip0_406_240">
<rect width="44" height="44" fill="white"/>
</clipPath>
</defs>
</svg>
