<svg width="44" height="44" viewBox="0 0 44 44" fill="none" xmlns="http://www.w3.org/2000/svg">
<g clip-path="url(#clip0_195_1013)">
<path d="M0 35.4756L0.364891 35.1031L17.6218 11.221L17.6583 10.9681L10.0512 0.546406C9.41359 -0.326575 7.61922 -0.105822 7.41022 0.871454L0 35.4756Z" fill="#FFC24A"/>
<path d="M23.204 18.8511L28.8681 14.6203L23.2023 6.73168C22.6645 5.98494 21.1628 5.98268 20.6307 6.73168L17.6034 10.942V11.3005L23.2038 18.8511H23.204Z" fill="#F4BD62"/>
<path d="M0 35.4756L0.165344 35.3542L0.766219 35.1762L22.8482 19.1306L23.128 18.5752L17.6194 10.9192L0 35.4756Z" fill="#F6820C"/>
<path d="M23.9114 43.5677L43.8962 35.4387L38.1893 9.80399C38.0107 9.00196 36.6616 8.68493 35.8744 9.25994L0 35.4755L19.8701 43.567C20.4877 43.8185 21.1833 43.9506 21.8907 43.9507C22.598 43.9508 23.2937 43.819 23.9114 43.5677Z" fill="#FDE068"/>
<path d="M43.7171 35.3705L38.0535 9.93045C37.8764 9.13444 36.7544 8.80513 35.9733 9.37588L0.22171 35.4256L19.8737 43.4369C20.4866 43.6865 21.1769 43.8176 21.8789 43.8177C22.5808 43.8178 23.2712 43.687 23.8843 43.4376L43.7173 35.3704L43.7171 35.3705Z" fill="#FCCA3F"/>
<path d="M23.9113 43.328C23.2935 43.5793 22.5979 43.7112 21.8906 43.7111C21.1833 43.7109 20.4877 43.5789 19.8701 43.3274L0.160027 35.3523L0.000183105 35.4755L19.8701 43.567C20.4878 43.8185 21.1833 43.9505 21.8907 43.9506C22.598 43.9508 23.2937 43.8189 23.9114 43.5676L43.8962 35.4386L43.8472 35.219L23.9114 43.3282L23.9113 43.328Z" fill="#EEAB37"/>
</g>
<defs>
<clipPath id="clip0_195_1013">
<rect width="44" height="44" fill="white"/>
</clipPath>
</defs>
</svg>
