<svg width="44" height="44" viewBox="0 0 44 44" fill="none" xmlns="http://www.w3.org/2000/svg">
<path d="M21.9828 3.27857C11.3566 3.27427 2.75 11.8766 2.75 22.4942C2.75 30.8903 8.13398 38.0274 15.632 40.6485C16.6418 40.902 16.4871 40.1844 16.4871 39.6946V36.3645C10.6563 37.0477 10.4199 33.1891 10.0289 32.5446C9.23828 31.1954 7.36914 30.8516 7.92773 30.2071C9.25547 29.5239 10.609 30.379 12.1773 32.695C13.3117 34.375 15.5246 34.0915 16.6461 33.8122C16.891 32.8024 17.4152 31.9 18.1371 31.1997C12.0957 30.1168 9.57773 26.4301 9.57773 22.0473C9.57773 19.9204 10.2781 17.9653 11.6531 16.3883C10.7766 13.7887 11.7348 11.5629 11.8637 11.2321C14.3602 11.0086 16.9555 13.0196 17.1574 13.1786C18.5754 12.7961 20.1953 12.5942 22.0086 12.5942C23.8305 12.5942 25.4547 12.8047 26.8855 13.1915C27.3711 12.8219 29.7773 11.0946 32.0977 11.3051C32.2223 11.636 33.159 13.8102 32.334 16.3754C33.7262 17.9567 34.4352 19.929 34.4352 22.0602C34.4352 26.4516 31.9 30.1426 25.8414 31.2083C26.3603 31.7186 26.7724 32.3272 27.0535 32.9986C27.3346 33.6699 27.4791 34.3906 27.4785 35.1184V39.9524C27.5129 40.3391 27.4785 40.7215 28.123 40.7215C35.7328 38.1563 41.2113 30.9676 41.2113 22.4985C41.2113 11.8766 32.6004 3.27857 21.9828 3.27857Z" fill="#2FF2F0"/>
</svg>
