<svg width="44" height="44" viewBox="0 0 44 44" fill="none" xmlns="http://www.w3.org/2000/svg">
<path d="M37.2475 21.7058C37.2475 20.7554 36.8699 19.844 36.1979 19.172C35.526 18.5 34.6145 18.1225 33.6642 18.1225C33.5384 18.1224 33.4126 18.1288 33.2875 18.1418L38.2099 3.62451H17.2921L22.2077 18.1294C22.1362 18.1294 22.0633 18.1225 21.9904 18.1225C21.1348 18.1215 20.307 18.4268 19.6568 18.9831C19.0066 19.5394 18.577 20.31 18.4456 21.1555C18.3142 22.0011 18.4897 22.8657 18.9404 23.5931C19.3911 24.3204 20.0872 24.8625 20.9028 25.1213C20.1406 26.4336 19.1915 27.6282 18.0854 28.6674C16.6456 30.0438 14.9351 31.1053 13.0626 31.7845C12.0135 31.2873 11.193 30.4094 10.7677 29.3291C10.3425 28.2488 10.3445 27.0472 10.7732 25.9683C10.8791 25.7208 10.9863 25.4705 11.0881 25.2203C11.887 25.0321 12.5972 24.5755 13.0999 23.9266C13.6027 23.2778 13.8675 22.4761 13.8502 21.6555C13.8329 20.8349 13.5345 20.045 13.0048 19.418C12.4751 18.7909 11.7463 18.3647 10.9402 18.2104C10.134 18.0561 9.2993 18.1831 8.57554 18.5703C7.85179 18.9574 7.28282 19.5813 6.96371 20.3375C6.64461 21.0937 6.5947 21.9366 6.82232 22.7252C7.04995 23.5138 7.54132 24.2004 8.21432 24.6703C7.07055 26.7442 6.19763 28.9563 5.61695 31.2524C5.1302 34.188 5.61695 37.3024 8.15382 39.0638C14.0663 43.1626 20.4862 36.5228 27.2539 34.8549C29.7069 34.2499 32.3992 34.3475 34.5593 33.0963C35.3397 32.6518 36.0127 32.041 36.5305 31.3071C37.0483 30.5733 37.3983 29.7345 37.5555 28.8503C37.6992 28.0077 37.6721 27.1448 37.4758 26.3129C37.2795 25.481 36.918 24.697 36.4128 24.0075C36.9519 23.3633 37.2469 22.5499 37.2461 21.7099L37.2475 21.7058ZM25.5751 21.725V21.7126C25.5761 21.096 25.4176 20.4896 25.115 19.9523C24.8124 19.415 24.3759 18.9651 23.8481 18.6464L27.7586 10.725L31.6773 18.7193C31.1857 19.046 30.7826 19.4893 30.5041 20.0097C30.2255 20.5301 30.0802 21.1114 30.081 21.7016V21.78L25.5751 21.725Z" fill="#C63D14"/>
<path d="M38.1233 21.7057C38.1219 20.6668 37.7582 19.6608 37.0949 18.8612C36.4315 18.0615 35.51 17.5183 34.4892 17.325L39.431 2.75H16.0725L21.0224 17.3539C20.1583 17.547 19.3713 17.9933 18.7618 18.6356C18.1523 19.278 17.748 20.0873 17.6005 20.9604C17.4529 21.8335 17.5688 22.7308 17.9334 23.5378C18.298 24.3447 18.8947 25.0248 19.6474 25.4911C19.0256 26.4149 18.3025 27.2663 17.4915 28.0294C16.236 29.2305 14.7608 30.1782 13.1465 30.8206C12.3889 30.3808 11.8146 29.6834 11.5283 28.8555C11.2421 28.0276 11.263 27.1244 11.5872 26.3106L11.6422 26.1828L11.744 25.9421C12.6604 25.6244 13.4483 25.0167 13.9884 24.2111C14.5285 23.4055 14.7914 22.4458 14.7373 21.4773C14.6831 20.5089 14.3149 19.5845 13.6883 18.8441C13.0618 18.1037 12.211 17.5877 11.2649 17.3741C10.3188 17.1605 9.32882 17.261 8.44495 17.6604C7.56108 18.0599 6.83143 18.7364 6.3665 19.5877C5.90157 20.4389 5.72668 21.4185 5.86832 22.378C6.00996 23.3375 6.46041 24.2248 7.15145 24.9054C7.00295 25.223 6.8462 25.5448 6.68533 25.8761C5.79382 27.5153 5.14537 29.2754 4.76033 31.1011C4.12095 34.9511 5.1522 38.0353 7.66295 39.7746C9.01078 40.7385 10.6273 41.2545 12.2843 41.25C15.2158 41.25 18.1817 39.7774 21.0843 38.3364C23.1124 37.2334 25.252 36.3494 27.4671 35.6991C28.2605 35.5039 29.0772 35.3856 29.9421 35.2605C31.7041 35.1197 33.4222 34.6398 35.0021 33.847C35.893 33.3381 36.6612 32.6395 37.2521 31.8007C37.843 30.9619 38.2423 30.0035 38.4217 28.9932C38.7138 27.2769 38.3765 25.5128 37.4716 24.0254C37.8996 23.3269 38.1257 22.5235 38.1247 21.7044L38.1233 21.7057ZM36.3729 21.7057C36.3729 22.2415 36.2141 22.7652 35.9164 23.2107C35.6188 23.6561 35.1958 24.0033 34.7008 24.2083C34.2058 24.4133 33.6612 24.467 33.1357 24.3625C32.6103 24.2579 32.1277 24 31.7488 23.6211C31.37 23.2423 31.112 22.7596 31.0075 22.2342C30.903 21.7088 30.9566 21.1641 31.1616 20.6692C31.3667 20.1742 31.7138 19.7511 32.1593 19.4535C32.6048 19.1559 33.1285 18.997 33.6642 18.997C34.3824 18.9977 35.0709 19.2833 35.5788 19.7912C36.0866 20.299 36.3722 20.9876 36.3729 21.7057ZM36.9876 4.50038L32.6233 17.3704C32.4364 17.4156 32.2527 17.473 32.0733 17.5423L27.7627 8.74225L23.4383 17.49C23.2501 17.4248 23.0576 17.3724 22.8622 17.3333L18.5131 4.50038H36.9876ZM21.9904 18.997C22.5262 18.997 23.0499 19.1559 23.4953 19.4535C23.9408 19.7511 24.288 20.1742 24.493 20.6692C24.698 21.1641 24.7517 21.7088 24.6472 22.2342C24.5426 22.7596 24.2847 23.2423 23.9058 23.6211C23.527 24 23.0443 24.2579 22.5189 24.3625C21.9935 24.467 21.4488 24.4133 20.9539 24.2083C20.4589 24.0033 20.0358 23.6561 19.7382 23.2107C19.4406 22.7652 19.2817 22.2415 19.2817 21.7057C19.2824 20.9876 19.568 20.299 20.0759 19.7912C20.5837 19.2833 21.2723 18.9977 21.9904 18.997ZM10.2727 19.0231C10.8087 19.0234 11.3325 19.1827 11.7779 19.4808C12.2234 19.7789 12.5703 20.2024 12.7749 20.6978C12.9795 21.1932 13.0326 21.7382 12.9273 22.2637C12.8221 22.7892 12.5633 23.2718 12.1838 23.6502C11.8042 24.0286 11.3209 24.2859 10.795 24.3895C10.2692 24.4931 9.7244 24.4384 9.22964 24.2323C8.73488 24.0262 8.31239 23.678 8.01564 23.2316C7.71889 22.7853 7.56122 22.261 7.56258 21.725C7.5633 21.0068 7.84892 20.3183 8.35675 19.8104C8.86459 19.3026 9.55314 19.017 10.2713 19.0163L10.2727 19.0231ZM36.6961 28.6949C36.5602 29.4528 36.2593 30.1716 35.8147 30.8003C35.3701 31.4291 34.7927 31.9523 34.1234 32.3331C32.7348 33.0074 31.2312 33.4128 29.6918 33.528C28.8228 33.6531 27.9249 33.7824 27.0463 33.9996C24.7074 34.6769 22.4484 35.6049 20.3088 36.7675C15.9583 38.9276 12.1963 40.7935 8.65983 38.3391C6.0652 36.5406 6.18483 33.2131 6.48733 31.3899C6.84331 29.7307 7.43702 28.1315 8.25008 26.642L8.62133 25.8734C8.99067 26.021 9.37825 26.1182 9.77358 26.1621C9.42362 27.3982 9.5214 28.7182 10.0497 29.8892C10.578 31.0602 11.5028 32.0071 12.6611 32.5627L12.998 32.736L13.3541 32.6095C15.3405 31.8925 17.1553 30.7685 18.6822 29.3095C19.6908 28.3607 20.5767 27.2895 21.3195 26.1209C22.2697 26.2654 23.2413 26.0988 24.0892 25.6459C24.937 25.1931 25.6157 24.4782 26.024 23.608C26.4323 22.7378 26.5482 21.7589 26.3546 20.8174C26.1609 19.8759 25.668 19.0222 24.9495 18.3837L27.7517 12.7174L30.5828 18.4924C29.7773 19.2687 29.2933 20.3196 29.2271 21.4364C29.1609 22.5532 29.5172 23.6539 30.2253 24.52C30.9334 25.3861 31.9415 25.9541 33.0491 26.1111C34.1568 26.2681 35.2829 26.0026 36.2038 25.3674C36.7144 26.398 36.8853 27.5639 36.6919 28.6976L36.6961 28.6949Z" fill="white"/>
</svg>
