<svg width="44" height="44" viewBox="0 0 44 44" fill="none" xmlns="http://www.w3.org/2000/svg">
<g clip-path="url(#clip0_195_1083)">
<path d="M22.0005 29.1846L14.8159 22L22.0005 14.8154V0L1.4818 20.5187C1.08901 20.9116 0.868347 21.4444 0.868347 22C0.868347 22.5556 1.08901 23.0884 1.4818 23.4813L22.0005 44C22.0005 44 25.1433 41.9048 25.1433 36.6667C24.9808 33.8869 23.8717 31.2466 22.0005 29.1846Z" fill="#2684FF"/>
<path d="M15.938 20.6035L16.0752 20.7408L22.0005 14.8154V0L10.8947 11.1048C11.7298 14.6525 13.4669 17.9244 15.938 20.6035Z" fill="#1D78F2"/>
<path d="M17.4539 19.1557L17.5586 19.2605L22.0026 14.8165V0L12.7123 9.28819C13.2949 12.97 14.9433 16.4004 17.4539 19.1557Z" fill="#126AE5"/>
<path d="M22.0005 14.8154V0L14.6672 7.33333C14.8278 11.2255 16.378 14.9311 19.0368 17.7781L22.0005 14.8154Z" fill="#0B60DA"/>
<path d="M16.7624 7.33333C16.7624 12.3053 20.3317 16.103 20.5182 16.2968L22.0005 14.8154V0L16.9489 5.05162C16.8236 5.80571 16.7612 6.56891 16.7624 7.33333Z" fill="#0154CE"/>
<path d="M22.0005 14.8154L29.184 22L22.0005 29.1846V44L42.5181 23.4813C42.9109 23.0884 43.1316 22.5556 43.1316 22C43.1316 21.4444 42.9109 20.9116 42.5181 20.5187L22.0005 0C22.0005 0 18.8577 2.09524 18.8577 7.33333C19.0202 10.1131 20.1293 12.7534 22.0005 14.8154Z" fill="#2482FD"/>
<path d="M28.062 23.3965L27.9248 23.2593L22.0005 29.1846V44L33.1053 32.8953C32.2702 29.3476 30.533 26.0756 28.062 23.3965Z" fill="#1D78F2"/>
<path d="M26.5462 24.8443L26.4414 24.7395L21.9984 29.1835V44L31.2866 34.7118C30.704 31.0302 29.0561 27.5999 26.5462 24.8443Z" fill="#126AE5"/>
<path d="M22.0005 29.1846V44L29.3339 36.6667C29.1731 32.7744 27.6224 29.0687 24.9632 26.2219L22.0005 29.1846Z" fill="#0B60DA"/>
<path d="M27.2386 36.6667C27.2386 31.6947 23.6694 27.8971 23.4819 27.7032L22.0005 29.1846V44L27.0521 38.9484C27.1769 38.1942 27.2393 37.4311 27.2386 36.6667Z" fill="#0154CE"/>
<path d="M22.0005 29.1846L14.8159 22H3.14337V25.1429L22.0005 44C22.0005 44 25.1434 41.9048 25.1434 36.6667C24.9808 33.8869 23.8717 31.2466 22.0005 29.1846Z" fill="#2684FF"/>
</g>
<defs>
<clipPath id="clip0_195_1083">
<rect width="44" height="44" fill="white"/>
</clipPath>
</defs>
</svg>
