<svg width="44" height="44" viewBox="0 0 44 44" fill="none" xmlns="http://www.w3.org/2000/svg">
<g clip-path="url(#clip0_195_1099)">
<path d="M22 43.9183C21.3168 43.9183 20.6791 43.7569 20.087 43.4745L14.029 40.287C13.118 39.8432 13.5735 39.6818 13.8468 39.6011C15.0765 39.238 15.3043 39.1573 16.5796 38.5116C16.7164 38.431 16.8986 38.4713 17.035 38.552L21.6812 41.0133C21.8634 41.0939 22.0911 41.0939 22.2277 41.0133L40.4018 31.693C40.584 31.6123 40.6751 31.4509 40.6751 31.2492V12.6488C40.6751 12.4471 40.584 12.2857 40.4018 12.205L22.2277 2.92493C22.0455 2.84424 21.8178 2.84424 21.6812 2.92493L3.50711 12.2051C3.32492 12.2858 3.23383 12.4876 3.23383 12.6489V31.2492C3.23383 31.4106 3.32492 31.6123 3.50711 31.693L8.47206 34.2348C11.1595 35.4452 12.8446 34.0331 12.8446 32.621V14.2626C12.8446 14.0205 13.0725 13.7785 13.3913 13.7785H15.7144C15.9876 13.7785 16.2609 13.9802 16.2609 14.2626V32.6208C16.2609 35.8083 14.3022 37.6642 10.886 37.6642C9.83847 37.6642 9.01863 37.6642 6.69573 36.6556L1.91297 34.2348C0.72875 33.6295 0 32.4998 0 31.2894V12.6893C0 11.4789 0.72875 10.3492 1.91297 9.74387L20.087 0.423633C21.2257 -0.141211 22.7743 -0.141211 23.913 0.423633L42.087 9.74387C43.2712 10.3491 44 11.4787 44 12.6893V31.2896C44 32.4999 43.2712 33.6296 42.087 34.2348L23.913 43.5554C23.3209 43.7974 22.6377 43.9185 22 43.9185V43.9183ZM27.6024 31.128C19.6314 31.128 17.9917 27.9003 17.9917 25.1567C17.9917 24.9146 18.2194 24.6725 18.5383 24.6725H20.9067C21.18 24.6725 21.4079 24.8339 21.4079 25.076C21.7723 27.2143 22.8198 28.2635 27.648 28.2635C31.4741 28.2635 33.114 27.4969 33.114 25.6813C33.114 24.6322 32.6585 23.8656 26.6915 23.3409C21.7267 22.8971 18.6294 21.9288 18.6294 18.4187C18.6294 15.1504 21.7265 13.2138 26.9192 13.2138C32.7494 13.2138 35.619 14.989 35.9834 18.8624C35.9834 18.9834 35.9379 19.1045 35.8468 19.2255C35.7557 19.3062 35.619 19.3869 35.4824 19.3869H33.114C32.886 19.3869 32.6585 19.2255 32.6128 19.0238C32.0662 16.8047 30.6543 16.0785 26.9192 16.0785C22.7289 16.0785 22.2277 17.3696 22.2277 18.3379C22.2277 19.5081 22.8198 19.871 28.4678 20.5166C34.0704 21.1621 36.7122 22.0902 36.7122 25.5601C36.6666 29.1107 33.3872 31.128 27.6024 31.128Z" fill="#539E43"/>
</g>
<defs>
<clipPath id="clip0_195_1099">
<rect width="44" height="44" fill="white"/>
</clipPath>
</defs>
</svg>
