<svg width="44" height="44" viewBox="0 0 44 44" fill="none" xmlns="http://www.w3.org/2000/svg">
<g clip-path="url(#clip0_195_1023)">
<path d="M30.4874 30.6076C32.1111 30.4312 33.3429 28.9626 33.2869 27.2001C33.231 25.4378 31.8311 24.0278 30.1513 24.0278H30.0394C28.3035 24.0866 26.9598 25.614 27.0158 27.4351C27.0719 28.3163 27.4077 29.08 27.9116 29.6088C26.008 33.5449 23.0964 36.4235 18.729 38.8322C15.7615 40.4771 12.682 41.0646 9.60248 40.6535C7.08279 40.3009 5.12308 39.1261 3.89108 37.1872C2.09945 34.3086 1.93153 31.1949 3.44334 28.0814C4.50725 25.8489 6.18681 24.204 7.25072 23.3815C7.02676 22.6178 6.69075 21.3254 6.52283 20.3855C-1.59603 26.554 -0.75608 34.8961 1.70758 38.8322C3.55523 41.7697 7.30675 43.5908 11.4501 43.5908C12.5699 43.5908 13.6897 43.4733 14.8096 43.1797C21.9766 41.7109 27.4079 37.246 30.4874 30.6076ZM40.342 23.3229C36.0865 18.0943 29.8155 15.2157 22.6485 15.2157H21.7527C21.2487 14.1583 20.1848 13.4532 19.009 13.4532H18.897C17.1614 13.512 15.8177 15.0393 15.8735 16.8607C15.9295 18.623 17.3293 20.033 19.009 20.033H19.1209C20.3527 19.9742 21.4167 19.1517 21.8646 18.0355H22.8724C27.1279 18.0355 31.1592 19.3279 34.7988 21.8541C37.5983 23.7928 39.6141 26.319 40.7339 29.3738C41.6857 31.8412 41.6297 34.2499 40.6218 36.3061C39.0541 39.4197 36.4225 41.1234 32.951 41.1234C30.7113 41.1234 28.5837 40.4183 27.4637 39.8896C26.8479 40.4771 25.728 41.417 24.944 42.0047C27.3518 43.1795 29.8155 43.8258 32.1671 43.8258C37.5423 43.8258 41.5178 40.7121 43.0296 37.5985C44.6533 34.1911 44.5412 28.3163 40.342 23.3229ZM11.898 31.6061C11.9541 33.3686 13.3538 34.7784 15.0336 34.7784H15.1456C16.8814 34.7198 18.2251 33.1922 18.1691 31.3711C18.1132 29.6086 16.7133 28.1988 15.0336 28.1988H14.9217C14.8096 28.1988 14.6415 28.1988 14.5298 28.2574C12.2341 24.2626 11.2822 19.9154 11.6182 15.2155C11.842 11.6907 12.962 8.63572 14.9217 6.10951C16.5454 3.93584 19.6809 2.87839 21.8087 2.81979C27.7437 2.70221 30.2632 10.4569 30.4313 13.5706C31.1592 13.7468 32.391 14.1581 33.231 14.4518C32.559 4.93485 26.9598 0 21.5847 0C16.5454 0 11.898 3.81862 10.0502 9.45838C7.47467 16.978 9.1544 24.204 12.2899 29.9025C12.0101 30.3137 11.842 30.9599 11.898 31.6062V31.6061Z" fill="#764ABC"/>
</g>
<defs>
<clipPath id="clip0_195_1023">
<rect width="44" height="44" fill="white"/>
</clipPath>
</defs>
</svg>
