<svg width="44" height="44" viewBox="0 0 44 44" fill="none" xmlns="http://www.w3.org/2000/svg">
<g clip-path="url(#clip0_195_1104)">
<path d="M37.8608 25.3261C36.3301 25.3366 34.9996 25.8282 33.8856 26.5549C33.4768 25.4755 33.068 24.5139 32.996 23.8085C32.9158 22.9858 32.8197 22.4835 32.9158 21.5004C33.012 20.5172 33.4448 19.1173 33.4367 19.0105C33.4288 18.9037 33.3405 18.4013 32.4589 18.3908C31.5774 18.38 30.816 18.6152 30.7278 18.925C30.6396 19.2348 30.4713 19.9402 30.3591 20.6666C30.2068 21.7355 28.596 25.5502 27.6744 27.5485C27.3778 26.7687 27.1213 26.0846 27.0651 25.5396C26.985 24.7169 26.8888 24.2146 26.985 23.2315C27.0813 22.2484 27.5141 20.8486 27.506 20.7416C27.4979 20.6348 27.4097 20.1325 26.5282 20.1219C25.6465 20.1111 24.8851 20.3463 24.7971 20.6561C24.7089 20.9662 24.6126 21.6926 24.4284 22.398C24.244 23.1034 22.1041 29.4724 21.5431 31.1178C21.3164 31.7838 21.0786 32.443 20.8298 33.0948C20.8298 33.0948 20.8218 33.1269 20.7977 33.1803C20.7196 33.3847 20.6395 33.5877 20.5574 33.7894V33.8C20.4371 34.0887 20.3089 34.3557 20.2448 34.3557C20.1967 34.3557 20.1085 33.5864 20.2608 32.5391C20.5813 30.3272 21.3427 26.8862 21.3348 26.7687C21.3348 26.7045 21.479 26.1061 20.8379 25.7961C20.2126 25.4863 19.9883 25.9991 19.9321 25.9991C19.8761 25.9991 19.8359 26.1809 19.8359 26.1809C19.8359 26.1809 20.5334 22.3125 18.5056 22.3125C17.2394 22.3125 15.4921 24.1612 14.6265 25.8282C13.6426 26.5421 12.6594 27.2581 11.6772 27.9762C11.2045 28.3288 10.7155 28.6815 10.2587 29.0127C10.2265 28.97 10.1946 28.9164 10.1624 28.8738C7.70994 25.3795 3.17382 22.9109 3.36614 18.2198C3.43833 16.51 3.87902 12.0218 12.078 6.57198C18.8261 2.13715 24.196 3.36594 25.1257 6.09096C26.456 9.98084 22.2485 17.2046 15.2757 18.2517C12.6149 18.6472 11.2203 17.2793 10.8678 16.7665C10.4991 16.232 10.4429 16.2 10.3066 16.307C10.0823 16.4674 10.2265 16.9482 10.3066 17.2259C10.5151 17.9524 11.3726 19.2348 12.8232 19.8655C14.1056 20.421 17.2232 20.731 20.9981 18.7861C25.2218 16.606 28.5238 10.5471 27.5541 5.47129C26.5842 0.320544 20.1726 -1.3785 14.1056 1.49594C10.4991 3.20598 6.58794 5.89869 3.77486 9.40379C0.432753 13.5712 -0.0962784 17.1939 0.120112 18.7114C0.897675 24.097 6.4678 27.6021 8.69582 30.1988C8.58358 30.2843 8.47925 30.3593 8.39125 30.4234C7.27716 31.1606 3.02944 34.1206 1.97155 37.2517C0.769456 40.7994 2.16405 43.3429 3.08564 43.6846C5.94685 44.7427 8.88814 42.8406 10.467 39.6987C12.0458 36.5571 11.8535 32.4749 11.1242 30.6049C11.1162 30.5836 11.1083 30.5621 11.0921 30.5408C11.3807 30.3164 11.6772 30.0813 11.9657 29.8569C12.4961 29.4389 13.0332 29.0362 13.5767 28.6492C13.3041 29.6431 13.1037 30.8293 13.0076 32.5391C12.8873 34.5482 13.5044 37.1554 14.3139 38.1812C14.6747 38.6303 15.0994 38.6409 15.372 38.6409C16.3176 38.6409 16.7425 37.5936 17.2153 36.354C17.7923 34.8367 18.3133 33.0735 18.3133 33.0735C18.3133 33.0735 17.6641 37.8395 19.4273 37.8395C20.0684 37.8395 20.7176 36.728 21.0062 36.1618V36.1723C21.0062 36.1723 21.0222 36.1402 21.0543 36.0655C21.1184 35.9266 21.1585 35.8409 21.1585 35.8409V35.8198C21.4149 35.2213 21.9921 33.8641 22.8495 31.6094C23.9556 28.7028 25.0215 25.0696 25.0215 25.0696C25.0215 25.0696 25.1178 25.9565 25.4462 27.4312C25.6387 28.2968 26.0392 29.2478 26.3599 30.1667C26.1035 30.6478 25.9431 30.9148 25.9431 30.9148L25.9512 30.9255C25.7427 31.2888 25.5184 31.6841 25.2699 32.0691C24.3963 33.458 23.3545 35.0505 23.2101 35.5098C23.0417 36.0547 23.0819 36.4503 23.4026 36.7709C23.635 37.006 24.0516 37.0379 24.4765 37.006C25.262 36.9311 25.8149 36.6746 26.0873 36.5144C26.5122 36.3114 27.0091 36.0013 27.4738 35.5419C28.3315 34.6976 28.8523 33.4901 28.8043 31.8981C28.7803 31.0218 28.5639 30.1454 28.2994 29.3225C28.3796 29.1731 28.4516 29.0234 28.5319 28.8738C29.8863 26.2343 30.9363 23.3383 30.9363 23.3383C30.9363 23.3383 31.0325 24.2252 31.361 25.7001C31.5213 26.4481 31.85 27.2602 32.1384 28.0509C30.8641 29.4295 30.0786 31.0323 29.7981 32.0796C29.2933 34.0245 29.6859 34.9006 30.4313 35.1037C30.7678 35.1999 31.2487 34.9861 31.6014 34.7831C32.0502 34.5908 32.5792 34.2597 33.0842 33.7679C33.9418 32.9239 34.7672 31.7482 34.7191 30.1562C34.695 29.4295 34.5508 28.7134 34.3504 28.0188C35.4323 27.4207 36.8269 27.0893 38.606 27.367C42.4211 27.9654 43.1745 31.1391 43.0301 32.4752C42.8859 33.8107 42.0844 34.5374 41.8201 34.7618C41.5554 34.9864 41.4674 35.0611 41.4915 35.2213C41.5234 35.4564 41.6516 35.4458 41.8761 35.403C42.1888 35.3283 43.8798 34.3236 43.9518 31.8658C44.0722 28.7241 41.828 25.294 37.8608 25.3261ZM8.4313 38.5554C7.16493 40.3933 5.40183 41.0879 4.64042 40.5003C3.82299 39.8697 4.14353 37.1554 5.69832 35.2107C6.64397 34.0245 7.86222 32.9236 8.67175 32.2506C8.856 32.1009 9.1286 31.8873 9.45722 31.6201C9.51325 31.5773 9.54539 31.556 9.54539 31.556L9.73772 31.3955C10.3066 34.174 9.76178 36.6212 8.4313 38.5554ZM17.6481 30.1988C17.2072 31.6309 16.2856 35.2962 15.7246 35.0931C15.2437 34.9222 14.9471 32.1438 15.6284 29.3974C15.973 28.0188 16.7023 26.3731 17.1271 25.7322C17.8164 24.7062 18.5778 24.364 18.762 24.7811C18.9946 25.3261 17.9205 29.3012 17.6481 30.1988ZM25.2539 35.0503C25.0695 35.1786 24.8933 35.2641 24.8131 35.1999C24.757 35.1571 24.8933 34.9861 24.8933 34.9861C24.8933 34.9861 25.8471 33.6185 26.2236 32.9986C26.4402 32.6353 26.6965 32.2079 26.969 31.7269V31.8658C26.969 33.5009 25.7828 34.6016 25.2537 35.0503H25.2539ZM31.1205 33.2658C30.9842 33.1374 31.0083 32.71 31.4651 31.3742C31.6415 30.8506 32.0581 29.9745 32.7715 29.1302C32.8516 29.4721 32.9078 29.8035 32.8998 30.1134C32.8917 32.1759 31.7858 32.9452 31.1205 33.2658Z" fill="#CD6799"/>
</g>
<defs>
<clipPath id="clip0_195_1104">
<rect width="44" height="44" fill="white"/>
</clipPath>
</defs>
</svg>
