<svg width="44" height="44" viewBox="0 0 44 44" fill="none" xmlns="http://www.w3.org/2000/svg">
<path d="M24.8187 40.7001C24.8765 40.5694 25.0222 40.4787 25.1281 40.3687C26.7437 38.6747 28.3731 36.9958 29.9667 35.2812C30.4654 34.8206 30.8508 34.2509 31.0926 33.6166C31.3345 32.9824 31.4264 32.3007 31.361 31.6251C31.3109 31.3357 31.2453 31.0493 31.1643 30.7671C30.7298 31.1796 30.3256 31.5549 29.9186 31.9331C29.2861 32.5216 28.6563 33.1128 28.0183 33.6944C27.6421 34.078 27.1584 34.3384 26.6311 34.4413C26.1038 34.5442 25.5576 34.4846 25.0648 34.2706C24.566 34.0873 24.132 33.7616 23.8166 33.3338C23.5013 32.906 23.3186 32.395 23.2911 31.8643C23.2763 31.796 23.2566 31.7289 23.232 31.6636C22.7466 32.0761 22.2818 32.4556 21.8212 32.8461L12.2471 40.9586C12.1811 41.0149 12.1096 41.0851 12.0477 41.1401H24.8118L24.7926 41.1277C24.7238 41.0796 24.7596 40.8266 24.8187 40.7001ZM11.4633 40.7001C11.5769 40.5522 11.7139 40.424 11.869 40.3206L25.1185 29.0799C26.0223 28.3127 26.922 27.5413 27.8176 26.7658C27.9283 26.6886 28.015 26.5819 28.0678 26.4578C28.2821 25.5243 28.3124 24.558 28.1572 23.6129C28.0197 23.7092 27.9455 23.7504 27.8822 23.8178C26.7973 24.7886 25.718 25.7676 24.6276 26.7328C24.2664 27.0963 23.7992 27.336 23.2932 27.4173C22.7872 27.4986 22.2685 27.4173 21.8116 27.1852C21.3455 26.9651 20.9554 26.6114 20.6909 26.1689C20.4265 25.7264 20.2996 25.2153 20.3266 24.7006V24.2551C20.1272 24.4008 19.9815 24.4984 19.8453 24.6084C14.5424 28.8544 9.24043 33.0972 3.93935 37.3368C3.7001 37.5279 3.4141 37.9542 3.1006 37.5403C2.7871 37.1264 3.26422 36.9559 3.50485 36.7634C9.1561 32.2287 14.8101 27.6981 20.4668 23.1716C21.3881 22.4332 21.4486 22.1238 20.8491 20.9509L20.4916 21.2864C19.5112 22.1981 18.5198 23.0973 17.5546 24.0241C17.1587 24.406 16.6628 24.6681 16.1242 24.7802C15.5856 24.8923 15.0263 24.8498 14.5108 24.6575C13.9954 24.4653 13.5448 24.1312 13.2112 23.6938C12.8775 23.2564 12.6744 22.7336 12.6252 22.1857C12.4423 22.3232 12.2842 22.4236 12.1343 22.5404L3.74685 29.0414C3.60219 29.1833 3.43721 29.3029 3.25735 29.3962C3.1216 29.4372 2.97583 29.4299 2.84485 29.3756V41.1469H11.4468C11.4149 41.0762 11.3997 40.9991 11.4026 40.9216C11.4054 40.844 11.4262 40.7682 11.4633 40.7001Z" fill="#FFCEBF"/>
<path d="M34.7009 3.33165C34.4671 4.09752 34.2402 4.86477 34.0354 5.6389C33.8461 6.18596 33.8681 6.78398 34.0971 7.31564C34.326 7.84731 34.7454 8.27423 35.2729 8.51265C36.8863 9.36075 38.7044 9.74171 40.5226 9.61265V3.46227C40.5024 3.32743 40.5099 3.18988 40.5446 3.05802C40.5831 2.98344 40.6317 2.9145 40.689 2.85315H34.6954C34.7875 2.9604 34.7559 3.14877 34.7009 3.33165Z" fill="#FF6196"/>
<path d="M22.6628 16.544C22.6343 17.2305 22.3941 17.8913 21.9753 18.436C20.4779 20.3689 18.7583 22.1189 16.852 23.65C16.5446 23.9345 16.155 24.1144 15.739 24.1638C15.323 24.2132 14.902 24.1296 14.5365 23.925C14.1727 23.7695 13.866 23.5053 13.6584 23.1685C13.4509 22.8316 13.3527 22.4388 13.3774 22.044C13.4214 21.559 13.6228 21.1018 13.9508 20.7419C16.0825 18.7092 18.3921 16.8717 20.8519 15.2515C21.013 15.1252 21.2097 15.0527 21.4143 15.0443C21.6189 15.0359 21.8209 15.092 21.9918 15.2047C22.2164 15.3442 22.398 15.5432 22.5164 15.7796C22.6349 16.016 22.6855 16.2806 22.6628 16.544ZM21.0155 24.8779C20.9836 24.5739 21.0226 24.2667 21.1295 23.9804C21.2364 23.6941 21.4082 23.4365 21.6315 23.2279C23.7188 21.3027 25.9581 19.5494 28.3278 17.985C28.3993 17.9396 28.4653 17.8942 28.5436 17.8475C28.7506 17.6981 29.0014 17.6217 29.2566 17.6304C29.5117 17.6391 29.7567 17.7324 29.953 17.8956C30.143 18.0565 30.2774 18.2732 30.3371 18.5149C30.3968 18.7565 30.3789 19.0109 30.2858 19.2417C29.986 20.2402 29.4327 21.1441 28.6798 21.8652C27.1507 23.3716 25.592 24.8477 24.0048 26.2927C23.7657 26.5385 23.4517 26.6979 23.1122 26.7457C22.7727 26.7935 22.4269 26.727 22.1293 26.5567C21.8165 26.3942 21.5503 26.1549 21.3554 25.8612C21.1606 25.5675 21.0437 25.2292 21.0155 24.8779ZM30.9375 25.7867C30.5525 26.1992 30.1565 26.5925 29.7866 27.0146C29.6754 27.1778 29.5832 27.3531 29.5116 27.5371C29.7151 27.5976 29.953 27.7571 30.118 27.7007C30.9581 27.4189 31.7776 27.0806 32.7003 26.7245C32.4995 27.1865 32.3483 27.6127 32.1351 28.0032C31.2571 29.4788 30.1576 30.8107 28.875 31.9522C28.3874 32.4225 27.8809 32.8721 27.3556 33.3011C27.0775 33.5319 26.743 33.6847 26.3864 33.7439C26.0298 33.803 25.6639 33.7664 25.3262 33.6377C24.9884 33.509 24.6908 33.2929 24.464 33.0115C24.2371 32.7301 24.0891 32.3935 24.035 32.0361C24.013 31.8374 24.0306 31.6363 24.0867 31.4444C24.1429 31.2525 24.2366 31.0737 24.3623 30.9182C26.2334 28.8863 28.3718 27.118 30.7189 25.6616C30.7474 25.6505 30.7777 25.6445 30.8083 25.6437L30.9375 25.7867Z" fill="#FF87AF"/>
<path d="M34.0917 20.3101L36.4444 9.86011L38.0944 10.2465L37.2432 12.8329C36.4485 15.2391 35.6441 17.6454 34.8686 20.0544C34.7174 20.4999 34.5194 20.5824 34.0917 20.3101ZM31.4352 26.4564C31.6841 25.5062 31.9316 24.6276 32.1406 23.7394C32.3443 22.878 32.7317 22.0707 33.2764 21.373C33.6105 20.9344 33.9859 21.109 34.3695 21.2039C34.7242 21.2905 34.8136 21.5504 34.8287 21.8914C34.8847 22.8343 34.5975 23.7657 34.0202 24.5135C33.333 25.3654 32.4447 26.0331 31.4352 26.4564Z" fill="#FF6196"/>
<path d="M41.2404 3.97924C41.2609 3.67301 41.2531 3.36553 41.217 3.06074C41.1886 2.9756 41.1325 2.90248 41.0575 2.85312C40.9965 2.80348 40.925 2.76824 40.8485 2.74999C40.8045 2.74174 40.7426 2.78712 40.6835 2.85174C40.6262 2.91309 40.5776 2.98203 40.5391 3.05662C40.5044 3.18847 40.4969 3.32602 40.5171 3.46087V9.60987C38.699 9.73892 36.8808 9.35797 35.2674 8.50987C34.7399 8.27145 34.3206 7.84452 34.0916 7.31286C33.8627 6.7812 33.8407 6.18317 34.0299 5.63612C34.2348 4.86199 34.4616 4.09474 34.6954 3.32887C34.7504 3.14599 34.782 2.95762 34.6954 2.85037C34.6472 2.79816 34.5807 2.76662 34.5098 2.76237C34.4189 2.76335 34.331 2.79428 34.2595 2.85037C34.1567 2.91187 34.0748 3.0029 34.0244 3.11162C33.7494 3.93662 33.5074 4.76987 33.297 5.61137C33.2176 5.94297 33.1962 6.28583 33.2338 6.62474C33.287 7.23796 33.515 7.82302 33.8909 8.31048C34.2667 8.79794 34.7745 9.16731 35.354 9.37474C35.6139 9.48337 35.7665 9.59062 35.6936 9.93299C35.5933 10.3675 35.4956 10.802 35.3966 11.2379C34.7229 14.1914 34.0528 17.1462 33.3864 20.1025C33.3676 20.2343 33.3096 20.3574 33.22 20.4559C32.7808 20.805 32.4117 21.2342 32.1324 21.7209C31.7764 22.363 31.5301 23.0601 31.4036 23.7834C31.3794 24.0141 31.296 24.2346 31.1616 24.4237C31.0272 24.6128 30.8463 24.764 30.6364 24.8627C30.063 25.1529 29.5364 25.5282 28.8998 25.9187C28.9422 25.1532 28.9339 24.3856 28.875 23.6211C28.8266 23.3859 28.8368 23.1425 28.905 22.9122C28.9731 22.682 29.0969 22.4721 29.2655 22.3011C30.1041 21.4703 30.7019 20.4278 30.9953 19.2844C31.0829 19.0193 31.1069 18.7374 31.0654 18.4613C31.0239 18.1853 30.918 17.9228 30.7563 17.6953C30.5946 17.4677 30.3816 17.2814 30.1346 17.1514C29.8876 17.0214 29.6134 16.9513 29.3343 16.9469C28.8823 16.9418 28.4386 17.0679 28.0569 17.3099C26.7449 18.2058 25.4556 19.1347 24.1904 20.0956C23.4383 20.6621 22.7301 21.2891 22.0014 21.8831C21.97 21.8494 21.9427 21.812 21.9203 21.7717C21.9063 21.6705 21.879 21.5716 21.8391 21.4775C21.23 20.537 21.6521 19.8536 22.3135 19.151C23.0025 18.4287 23.3833 17.4665 23.375 16.4684C23.3964 15.9598 23.2371 15.46 22.9254 15.0576C22.7593 14.8533 22.5547 14.6837 22.3231 14.5585C21.9942 14.3785 21.6181 14.3033 21.2453 14.3431C20.8725 14.383 20.5207 14.5358 20.2373 14.7812L19.8536 15.0562C18.9778 15.6832 18.0909 16.2937 17.248 16.9647C16.0175 17.9471 14.8135 18.9623 13.6373 20.009C13.0873 20.4944 12.6858 21.1571 12.1151 21.6081C9.13964 23.958 6.13251 26.2652 3.13639 28.5876C3.03337 28.6491 2.93864 28.7235 2.85451 28.809C2.84585 28.8215 2.83848 28.8349 2.83251 28.8489C2.76926 28.996 2.71564 29.2394 2.78989 29.3287C2.80809 29.3481 2.83009 29.3636 2.85451 29.3741C2.98549 29.4285 3.13126 29.4358 3.26701 29.3947C3.44688 29.3014 3.61185 29.1819 3.75651 29.04L12.144 22.539C12.2939 22.4221 12.452 22.3162 12.6349 22.1842C12.6841 22.7322 12.8872 23.255 13.2209 23.6924C13.5545 24.1298 14.0051 24.4639 14.5205 24.6561C15.036 24.8483 15.5953 24.8909 16.1338 24.7788C16.6724 24.6667 17.1683 24.4045 17.5643 24.0226C18.5268 23.0959 19.5209 22.1966 20.5013 21.285L20.8588 20.9495C21.4583 22.1224 21.3978 22.4317 20.4765 23.1701C14.8152 27.7003 9.15797 32.2314 3.50489 36.7634C3.26426 36.9559 2.78851 37.1305 3.10064 37.5402C3.41276 37.95 3.70014 37.5279 3.93939 37.3367C9.24322 33.1008 14.5434 28.8594 19.8399 24.6125C19.9774 24.5025 20.1218 24.4049 20.3211 24.2591V24.7046C20.2942 25.2194 20.421 25.7305 20.6854 26.173C20.9499 26.6154 21.34 26.9692 21.8061 27.1892C22.263 27.4214 22.7818 27.5026 23.2878 27.4213C23.7938 27.34 24.2609 27.1004 24.6221 26.7369C25.7125 25.7744 26.7919 24.7926 27.8768 23.8219C27.9455 23.76 28.0253 23.7132 28.1518 23.617C28.307 24.5621 28.2766 25.5284 28.0624 26.4619C28.0095 26.586 27.9228 26.6927 27.8121 26.7699C26.9156 27.5444 26.0159 28.3158 25.113 29.084L11.869 40.326C11.714 40.4294 11.5769 40.5577 11.4634 40.7055C11.4272 40.7729 11.4068 40.8478 11.404 40.9243C11.4011 41.0008 11.4158 41.0769 11.4469 41.1469C11.509 41.1934 11.5808 41.2254 11.657 41.2404C11.7332 41.2554 11.8118 41.253 11.8869 41.2335C11.9462 41.2163 12.0007 41.1857 12.0464 41.1441C12.1151 41.0891 12.1839 41.019 12.2458 40.9626L21.8199 32.8501C22.2805 32.4596 22.7453 32.0746 23.2306 31.6676C23.2552 31.733 23.275 31.8001 23.2898 31.8684C23.3172 32.3991 23.5 32.9101 23.8153 33.3378C24.1306 33.7656 24.5647 34.0914 25.0635 34.2746C25.5563 34.4887 26.1024 34.5482 26.6298 34.4454C27.1571 34.3425 27.6408 34.0821 28.017 33.6985C28.655 33.1169 29.2848 32.5256 29.9173 31.9371C30.3298 31.559 30.7285 31.1795 31.163 30.7711C31.244 31.0534 31.3096 31.3398 31.3596 31.6291C31.4228 32.3026 31.3299 32.9815 31.0881 33.6132C30.8463 34.2449 30.4621 34.8124 29.9654 35.2715C28.3718 36.9875 26.7424 38.6664 25.1268 40.359C25.0209 40.469 24.8751 40.5597 24.8174 40.6904C24.7596 40.821 24.7225 41.0767 24.7913 41.1317L24.8105 41.1441C24.9547 41.2142 25.1168 41.2387 25.2753 41.2142C25.3197 41.2051 25.3592 41.1802 25.3866 41.1441C25.4251 41.1042 25.4623 41.0547 25.4994 41.0176C26.8084 39.6646 28.1243 38.3185 29.4236 36.9559C29.9481 36.4245 30.4412 35.863 30.9004 35.2742C31.4991 34.6114 31.8962 33.7913 32.0447 32.9105C32.1933 32.0297 32.0873 31.1248 31.7391 30.3022C31.7017 30.1188 31.7383 29.9281 31.8409 29.7715C31.9303 29.6175 32.0293 29.4676 32.131 29.3191C32.4566 28.8964 32.7278 28.4344 32.9381 27.9441C33.3447 26.7407 33.9688 25.6222 34.7793 24.6441C35.1519 24.1717 35.4082 23.6183 35.5277 23.0286C35.6471 22.4389 35.6262 21.8294 35.4668 21.2492C35.4104 21.0287 35.4104 20.7975 35.4668 20.5769C36.1625 18.4222 36.8789 16.2745 37.5884 14.1254L38.5371 11.2461L38.83 10.3565C39.4543 10.3565 40.0428 10.3441 40.6285 10.3565C41.1153 10.3702 41.2638 10.142 41.2583 9.66899C41.2294 7.77149 41.2404 5.87537 41.2404 3.97924ZM16.852 23.65C16.5446 23.9346 16.1549 24.1144 15.739 24.1638C15.323 24.2133 14.902 24.1296 14.5365 23.925C14.1727 23.7696 13.8659 23.5053 13.6584 23.1685C13.4508 22.8317 13.3527 22.4388 13.3774 22.044C13.4214 21.559 13.6228 21.1018 13.9508 20.7419C16.0825 18.7092 18.3921 16.8717 20.8519 15.2515C20.9861 15.1566 21.1389 15.091 21.3001 15.059C21.4083 15.039 21.5192 15.039 21.6274 15.059C21.7569 15.0842 21.8806 15.1337 21.9918 15.2047C22.2166 15.3443 22.3984 15.5435 22.5168 15.7802C22.6353 16.0168 22.6858 16.2817 22.6628 16.5454C22.6343 17.2319 22.3941 17.8927 21.9753 18.4374C20.4778 20.3698 18.7583 22.1194 16.852 23.65ZM24.002 26.3024C23.763 26.5482 23.449 26.7075 23.1094 26.7553C22.7699 26.8031 22.4241 26.7366 22.1265 26.5664C21.8132 26.4035 21.5466 26.1635 21.3517 25.8691C21.1569 25.5746 21.0402 25.2354 21.0128 24.8834C20.9808 24.5794 21.0199 24.2722 21.1268 23.9859C21.2336 23.6996 21.4055 23.442 21.6288 23.2334C23.716 21.3082 25.9554 19.5549 28.325 17.9905C28.3965 17.9451 28.4625 17.8997 28.5409 17.853C28.7479 17.7036 28.9987 17.6272 29.2538 17.6359C29.5089 17.6446 29.754 17.7379 29.9503 17.9011C30.1402 18.062 30.2746 18.2787 30.3343 18.5204C30.3941 18.762 30.3761 19.0164 30.283 19.2472C29.9832 20.2458 29.4299 21.1496 28.677 21.8707C27.1604 23.386 25.5833 24.8449 24.0048 26.2969L24.002 26.3024ZM32.1296 28.0087C31.2528 29.482 30.1552 30.8119 28.875 31.9522C28.3873 32.4225 27.8809 32.8721 27.3556 33.3011C27.0775 33.5319 26.743 33.6847 26.3864 33.7439C26.0298 33.803 25.6639 33.7664 25.3261 33.6377C24.9884 33.509 24.6908 33.2929 24.464 33.0115C24.2371 32.7301 24.0891 32.3935 24.035 32.0361C24.013 31.8374 24.0305 31.6363 24.0867 31.4444C24.1429 31.2525 24.2365 31.0737 24.3623 30.9182C26.2334 28.8863 28.3718 27.118 30.7189 25.6616C30.7474 25.6505 30.7777 25.6445 30.8083 25.6437L30.9458 25.7812C30.5608 26.1937 30.1648 26.587 29.7949 27.0091C29.6837 27.1723 29.5914 27.3476 29.5199 27.5316C29.7234 27.5921 29.9613 27.7516 30.1263 27.6952C30.7904 27.4725 31.4435 27.214 32.1434 26.939L32.7085 26.719C32.4968 27.1865 32.3455 27.6127 32.1324 28.0032L32.1296 28.0087ZM34.0175 24.5231C33.5046 25.1761 32.8618 25.7155 32.1296 26.1071C31.9032 26.2336 31.6708 26.3519 31.4325 26.4619C31.6773 25.5255 31.922 24.6579 32.1296 23.7806L32.1379 23.7449C32.3416 22.8835 32.729 22.0763 33.2736 21.3785C33.6078 20.9399 33.9831 21.1145 34.3668 21.2094C34.7215 21.296 34.8109 21.5559 34.826 21.8969C34.8824 22.839 34.5962 23.7698 34.0203 24.5176L34.0175 24.5231ZM37.235 12.8356C36.4403 15.2419 35.6359 17.6481 34.8604 20.0571C34.7146 20.5095 34.5166 20.592 34.089 20.3197L36.1281 11.2544L36.4416 9.86287L38.0916 10.2492L37.7603 11.2544L37.235 12.8356Z" fill="black"/>
</svg>
