<svg width="44" height="44" viewBox="0 0 44 44" fill="none" xmlns="http://www.w3.org/2000/svg">
<g clip-path="url(#clip0_195_1115)">
<path d="M22 0C16.1334 0 12.4666 4.87629 11 14.6286C13.2 9.75229 15.7666 7.92371 18.7 9.14286C20.3735 9.83829 21.5698 11.8569 22.8939 14.0909C25.051 17.7306 27.5473 21.9429 33 21.9429C38.8666 21.9429 42.5334 17.0666 44 7.31429C41.8 12.1906 39.2334 14.0191 36.3 12.8C34.6265 12.1046 33.4302 10.086 32.1061 7.852C29.949 4.21229 27.4527 0 22 0ZM11 21.9429C5.13339 21.9429 1.46661 26.8191 0 36.5714C2.2 31.6951 4.76661 29.8666 7.7 31.0857C9.37355 31.7811 10.5698 33.7997 11.8939 36.0337C14.051 39.6734 16.5473 43.8857 22 43.8857C27.8666 43.8857 31.5334 39.0094 33 29.2571C30.8 34.1334 28.2334 35.962 25.3 34.7429C23.6265 34.0474 22.4302 32.0289 21.1061 29.7949C18.949 26.1551 16.4527 21.9429 11 21.9429Z" fill="url(#paint0_linear_195_1115)"/>
</g>
<defs>
<linearGradient id="paint0_linear_195_1115" x1="-1.22232" y1="14.0434" x2="43.9748" y2="29.7201" gradientUnits="userSpaceOnUse">
<stop stop-color="#2298BD"/>
<stop offset="1" stop-color="#0ED7B5"/>
</linearGradient>
<clipPath id="clip0_195_1115">
<rect width="44" height="44" fill="white"/>
</clipPath>
</defs>
</svg>
