<svg width="65" height="65" viewBox="0 0 65 65" fill="none" xmlns="http://www.w3.org/2000/svg">
<circle cx="32.5" cy="32.5" r="31.5" fill="#02072E" stroke="#2FF2F0" stroke-width="2"/>
<g clip-path="url(#clip0_410_869)">
<path d="M35.1278 41.3493V31.878H38.1377V40.1397C38.1752 43.7758 37.9111 44.9455 36.1916 46.0836C33.6297 47.5012 30.1254 46.4302 29.1375 43.9598L31.5751 42.4666C32.4335 44.0151 33.2595 44.2315 34.3266 43.8709C35.1158 43.6041 35.162 42.4714 35.1278 41.3493V41.3493ZM39.5267 43.6095L41.9611 42.2054C42.6134 43.2081 43.2167 43.759 44.3012 43.9844C45.7729 44.1636 47.2538 43.6587 46.922 42.0958C46.5809 40.8187 43.909 40.5084 42.0901 39.1432C40.2436 37.903 39.8114 34.89 41.3281 33.1684C42.8526 31.2054 47.4181 30.886 49.0973 34.1137L46.7509 35.6191C45.895 33.6234 42.8093 33.9778 43.4768 36.2193C44.0847 37.7721 49.2112 37.7721 49.89 41.5715C50.3112 43.5874 49.4854 45.1537 48.0507 45.9623C45.5793 47.3553 41.1682 46.886 39.5267 43.6096V43.6095ZM33.2028 40.6268V32.8846L32.2087 31.2315H27.2568L21.6241 40.6268H33.2028ZM33.7689 29.9529H35.8923L34.3075 27.4681V19.1157H36.0391C37.3343 19.1157 37.3343 17.2832 36.0391 17.2832H23.4265C22.1314 17.2832 22.1314 19.1157 23.4265 19.1157H25.1581V27.4681L16.3828 42.0207C15.5589 43.4229 16.0761 44.2991 17.8258 44.2991H28.1832V42.4666H18.2521L27.0149 27.9363V19.1157H32.4506V27.9363L33.7689 29.9529H33.7689Z" fill="#2FF2F0"/>
</g>
<defs>
<clipPath id="clip0_410_869">
<rect width="34" height="34" fill="white" transform="translate(16 15)"/>
</clipPath>
</defs>
</svg>
