<svg width="65" height="65" viewBox="0 0 65 65" fill="none" xmlns="http://www.w3.org/2000/svg">
<circle cx="32.5" cy="32.5" r="31.5" fill="#02072E" stroke="#2FF2F0" stroke-width="2"/>
<path d="M21.5781 17.9219L20.9799 18.4861L19.4861 19.9799L18.9219 20.5781L19.3532 21.2751L21.5781 24.9939L21.8767 25.5251H24.9994L29.2494 29.7422C25.452 33.5566 20.6208 38.4037 20.4508 38.5747C18.7859 40.2386 18.7827 42.965 20.4827 44.5513C22.1434 46.1897 24.8496 46.2322 26.4274 44.5513L26.4592 44.5173L33 37.9436L39.5747 44.5503L39.6736 44.6172C41.3417 46.1897 43.9947 46.2109 45.5513 44.5503V44.5184H45.5832C47.2109 42.8534 47.2279 40.1473 45.5513 38.5737L45.5173 38.5418L39.9732 33.0296C43.7036 32.6811 46.6255 29.5307 46.6797 25.7249H46.7126C46.7169 25.7036 46.7126 25.6792 46.7126 25.6579V25.625C46.8168 24.3967 46.5511 23.2216 45.9158 22.2048L45.1869 21.0775L40.2388 26.0245L38.7449 24.4637L43.7918 19.4168L42.3309 18.8197C41.399 18.4097 40.3931 18.1946 39.375 18.1875C35.2907 18.1875 31.9375 21.5407 31.9375 25.625C31.9375 26.0691 32.0331 26.4548 32.1033 26.8533C31.6389 27.3186 31.2904 27.7001 30.7422 28.2483L26.5251 24.0312V20.8767L25.9939 20.5781L22.2751 18.3532L21.5781 17.9219ZM39.375 20.3125C39.5238 20.3125 39.6279 20.3996 39.7734 20.4124L35.7561 24.4297L36.4861 25.1936L39.4749 28.2812L40.2048 29.0452L44.4219 24.8281C44.4431 25.0725 44.6174 25.251 44.5876 25.5251V25.625C44.5876 28.5511 42.2013 30.9375 39.2751 30.9375C38.8852 30.9375 38.4124 30.8461 37.8811 30.7378L37.3159 30.6389L36.9174 31.0374L24.9324 43.0564H24.8984V43.0904C24.1441 43.9159 22.8234 43.9361 21.9436 43.0564V43.0234H21.9096C21.0841 42.2691 21.0639 40.9484 21.9436 40.0686C22.3463 39.6649 30.144 31.8002 33.9626 27.9827L34.3951 27.5513L34.2283 26.9531C34.1274 26.5173 34.0719 26.0722 34.0625 25.625C34.0625 22.6989 36.4489 20.3125 39.375 20.3125ZM21.9096 20.5781L24.4001 22.106V23.1685L24.1685 23.4001H23.106L21.5781 20.9107L21.9096 20.5781ZM37.4487 33.4939L44.0574 40.0686V40.1016H44.0893C44.9159 40.8559 44.9361 42.1766 44.0574 43.0564H44.0234V43.0904C43.2691 43.9159 41.9484 43.9361 41.0686 43.0564L34.4939 36.4497L37.4487 33.4939Z" fill="#2FF2F0"/>
</svg>
