<svg width="65" height="65" viewBox="0 0 65 65" fill="none" xmlns="http://www.w3.org/2000/svg">
<circle cx="32.5" cy="32.5" r="31.5" fill="#02072E" stroke="#2FF2F0" stroke-width="2"/>
<g clip-path="url(#clip0_409_863)">
<path d="M45.7075 25.299C46.26 24.7465 46.26 23.854 45.7075 23.3015L41.6983 19.2923C41.1458 18.7398 40.2533 18.7398 39.7008 19.2923L33.34 25.6531L27.8292 20.1423C26.7242 19.0373 24.925 19.0373 23.82 20.1423L21.1283 22.834C20.0233 23.939 20.0233 25.7381 21.1283 26.8431L26.6392 32.354L20.25 38.7431V44.7498H26.2567L32.66 38.3465L38.1708 43.8573C39.5167 45.2031 41.33 44.7073 42.18 43.8573L44.8717 41.1656C45.9767 40.0606 45.9767 38.2615 44.8717 37.1565L39.3608 31.6456L45.7075 25.299ZM23.14 24.8315L25.8175 22.1398L27.6167 23.939L25.945 25.6248L27.9425 27.6223L29.6283 25.9365L31.3283 27.6365L28.6367 30.3281L23.14 24.8315ZM39.0492 35.3715L37.3633 37.0573L39.3608 39.0548L41.0467 37.369L42.8458 39.1681L40.1542 41.8598L34.6433 36.349L37.335 33.6573L39.0492 35.3715ZM25.0808 41.9165H23.0833V39.919L36.6975 26.3048L38.5392 28.1465L38.695 28.3023L25.0808 41.9165ZM38.695 24.2931L40.6925 22.2956L42.69 24.2931L40.6925 26.2906L38.695 24.2931Z" fill="#2FF2F0"/>
</g>
<defs>
<clipPath id="clip0_409_863">
<rect width="34" height="34" fill="white" transform="translate(16 15)"/>
</clipPath>
</defs>
</svg>
