<svg width="44" height="44" viewBox="0 0 44 44" fill="none" xmlns="http://www.w3.org/2000/svg">
<g clip-path="url(#clip0_195_1056)">
<path d="M22 0.00732422L44 10.9929V32.9712L22 43.9568L0 32.9712V10.9929L22 0.00732422Z" fill="white"/>
<path d="M40.0732 32.209L22.7306 40.8785V34.1364L33.5397 28.8819L40.0732 32.209ZM41.2603 31.2636V13.1475L34.9178 16.3792V28.0316L41.2603 31.2636ZM3.8603 32.2089L21.203 40.8714V34.1291L10.394 28.8819L3.8603 32.209V32.2089ZM2.67316 31.2636V13.1475L9.01586 16.3792V28.0316L2.67316 31.2636ZM3.41222 11.9749L21.203 3.09256V9.61518L9.80459 15.1481L9.71316 15.1921L3.41222 11.9748V11.9749ZM40.5132 11.9749L22.7306 3.09241V9.61503L34.1208 15.1552L34.212 15.1992L40.5132 11.9746V11.9749Z" fill="#8ED6FB"/>
<path d="M21.203 32.5974L10.5433 27.4161V17.1635L21.203 22.594V32.5974ZM22.7306 32.5974L33.3903 27.4235V17.1635L22.7306 22.594V32.5974ZM11.2573 15.9762L21.9668 10.7803L32.6678 15.9762L21.9668 21.4287L11.2573 15.9762Z" fill="#1C78C0"/>
</g>
<defs>
<clipPath id="clip0_195_1056">
<rect width="44" height="44" fill="white"/>
</clipPath>
</defs>
</svg>
